<svg xmlns="http://www.w3.org/2000/svg" width="190" height="47" fill="none"><path fill="url(#a)" d="M8.307 37.576q-2.928 0-4.752-1.152a6.9 6.9 0 0 1-2.688-3.12Q.05 31.336.05 28.936q0-3.072 1.008-6.144a16.8 16.8 0 0 1 3.216-5.568q2.16-2.544 5.568-4.08t8.112-1.536q.672 0 1.728.096t2.112.336q1.104.24 1.728.672L19.73 28.12a48 48 0 0 0-.48 2.208 12 12 0 0 0-.192 2.208q0 .96.192 1.968t.576 2.256l-3.36.48q-.24-.576-.432-1.152-.144-.624-.336-1.44-1.056 1.008-2.976 1.968t-4.416.96m.48-3.072q2.16 0 3.936-.912 1.824-.96 2.928-2.16.048-.816.192-1.92.144-1.152.336-2.064l3.216-12.432q-.192-.048-1.008-.144-.768-.144-1.152-.144-3.024 0-5.472 1.152a12.9 12.9 0 0 0-4.224 3.024 13.7 13.7 0 0 0-2.736 4.416 13.9 13.9 0 0 0-.96 5.136q0 1.536.384 2.928.432 1.392 1.488 2.256 1.104.864 3.072.864m15.099 11.52q-1.2 0-2.304-.384-1.104-.336-1.584-.672L21.39 41.8q.384.432 1.2.672a5.6 5.6 0 0 0 1.776.288q3.072 0 5.04-1.2 2.016-1.152 3.936-3.984-1.92-6.048-3.36-12.576-1.44-6.576-1.68-12.864h3.84q.096 2.928.624 6.672.528 3.696 1.344 7.632a189 189 0 0 0 1.824 7.584 57 57 0 0 0 3.6-6.576 96 96 0 0 0 2.832-6.48q1.2-3.072 1.92-5.424.768-2.352.96-3.408h3.936q-.288 1.248-1.152 3.792-.816 2.544-2.16 5.856a95 95 0 0 1-3.12 6.768 56 56 0 0 1-3.84 6.624 76 76 0 0 1-3.12 4.32q-1.536 2.016-3.264 3.456a11.7 11.7 0 0 1-3.792 2.256q-2.112.816-4.848.816M46.857 37l5.856-24.288a18.4 18.4 0 0 1 3.072-.864q1.536-.336 2.832-.336 1.536 0 2.736.48 1.2.432 1.824 1.344 1.392-.96 2.64-1.392a7.6 7.6 0 0 1 2.496-.432q1.92 0 3.264 1.248 1.392 1.248 1.392 3.648 0 .576-.144 1.248-.096.672-.288 1.44L68.265 37h-3.6l4.272-17.904q.096-.432.144-.816a7 7 0 0 0 .048-.768q0-1.296-.624-1.968-.576-.72-1.536-.72-.624 0-1.392.336t-1.584 1.152q0 1.296-.336 2.784L61.69 27.4h-3.648l1.968-8.256q.192-.624.24-1.104.096-.528.096-.96 0-1.104-.576-1.68-.528-.576-1.68-.576-.48 0-1.104.144-.576.144-1.344.384L50.457 37zm36.364.624q-3.312 0-5.52-1.296-2.208-1.344-3.312-3.408t-1.104-4.272q0-3.456 1.008-6.528 1.056-3.12 3.024-5.472a14.4 14.4 0 0 1 4.8-3.744q2.832-1.344 6.336-1.344 2.88 0 4.56.864 1.728.864 2.448 2.256.72 1.344.72 2.88 0 2.832-1.2 4.608-1.152 1.776-3.168 2.736T87.3 26.296t-5.184.576q-2.688.096-5.184.192-.288 2.544.672 4.128 1.008 1.584 2.832 2.352 1.872.72 4.128.72a16 16 0 0 0 3.216-.336 30 30 0 0 0 2.928-.72q1.248-.432 1.584-.72l.384 3.36q-.912.48-3.264 1.152-2.352.624-6.192.624M77.605 24.04a143 143 0 0 0 5.904-.288q2.688-.24 4.656-.864 2.016-.624 3.12-1.824 1.104-1.248 1.104-3.36 0-.528-.336-1.2t-1.248-1.2-2.736-.528q-2.688 0-4.8 1.392a12.8 12.8 0 0 0-3.552 3.504q-1.44 2.112-2.112 4.368M99.088 37l5.664-23.664q3.072-.96 5.904-1.344a38 38 0 0 1 5.712-.432q1.296 0 2.352.096 1.104.096 3.12.528L120.4 15.4q-1.2-.288-2.016-.432a9 9 0 0 0-1.536-.144 24 24 0 0 0-1.68-.048q-1.728 0-3.552.192a26 26 0 0 0-3.696.672L102.832 37zm37.995 0q-2.688 0-4.224-.912t-2.16-2.448-.624-3.36q0-1.2.192-2.4.24-1.248.528-2.496l2.448-10.032h-7.248l.72-3.216h10.992l-3.12 13.44a43 43 0 0 0-.576 2.4 13 13 0 0 0-.192 2.16q0 1.536.816 2.64.864 1.104 3.264 1.104.912 0 1.68-.144t1.248-.192l-.384 3.216q.096-.096-.672.096-.72.144-2.688.144m-.816-29.904q-1.344 0-2.208-.816t-.864-2.16q0-1.824 1.152-2.832T136.843.28q1.296 0 2.16.816.912.768.912 2.256 0 1.68-1.2 2.736-1.152 1.008-2.448 1.008m21.484 30.528q-3.552 0-6.048-1.152t-3.792-3.264-1.296-4.896q0-3.216 1.056-6.192a16.7 16.7 0 0 1 3.12-5.424q2.112-2.4 5.232-3.792t7.2-1.392q1.968 0 3.648.24t3.12.912l-1.392 3.264q-.912-.48-2.208-.864-1.248-.432-3.648-.432-2.928 0-5.232 1.152a12.4 12.4 0 0 0-3.936 3.072 13.7 13.7 0 0 0-2.4 4.272 14 14 0 0 0-.816 4.704q0 1.68.672 3.216.672 1.488 2.4 2.4t4.848.912q2.448 0 4.56-.624 2.112-.672 2.832-1.2l.288 3.312q-.576.336-1.824.768-1.2.432-2.88.72a20 20 0 0 1-3.504.288m14.546-.468q-.792 0-1.3-.299a1.9 1.9 0 0 1-.728-.832 3 3 0 0 1-.234-1.209q0-.844.286-1.677a4.7 4.7 0 0 1 .858-1.508q.585-.69 1.482-1.105.91-.416 2.132-.416.156 0 .325.013h.312l.741-3.029 1.066-.182-1.872 7.683q-.078.325-.13.598a3.3 3.3 0 0 0-.052.598q0 .26.052.533.053.273.156.611l-.91.13a3 3 0 0 1-.117-.299 12 12 0 0 1-.091-.403q-.285.273-.767.533-.48.26-1.209.26m.104-.832q.586 0 1.066-.247.495-.26.793-.585a8 8 0 0 1 .052-.52 7 7 0 0 1 .091-.559l.871-3.367a3 3 0 0 0-.273-.039 2 2 0 0 0-.325-.039q-.806 0-1.469.312-.663.3-1.144.819a3.8 3.8 0 0 0-.728 1.196 4 4 0 0 0-.247 1.391q0 .416.104.793.105.377.39.611t.819.234m6.742.845q-.898 0-1.495-.351a2.415 2.415 0 0 1-1.196-2.08q0-.936.273-1.768a4.5 4.5 0 0 1 .819-1.482 3.9 3.9 0 0 1 1.3-1.014 3.95 3.95 0 0 1 1.716-.364q.78 0 1.235.234.468.234.663.611.195.364.195.78 0 .766-.325 1.248-.312.48-.858.741a4.7 4.7 0 0 1-1.222.377q-.677.117-1.404.156l-1.404.052q-.078.69.182 1.118.273.429.767.637.507.195 1.118.195.429 0 .871-.091.454-.09.793-.195.337-.117.429-.195l.104.91q-.248.13-.884.312-.638.17-1.677.169m-1.521-3.679q.87-.026 1.599-.078a6 6 0 0 0 1.261-.234q.546-.169.845-.494.299-.338.299-.91a.75.75 0 0 0-.091-.325.82.82 0 0 0-.338-.325q-.248-.143-.741-.143-.729 0-1.3.377a3.5 3.5 0 0 0-.962.949q-.39.572-.572 1.183m7.313 3.51a40 40 0 0 1-.377-2.002 35 35 0 0 1-.299-2.314 32 32 0 0 1-.143-2.418h1.04q.026.897.104 1.924.078 1.014.195 1.976t.26 1.69q.415-.507.858-1.196.442-.69.845-1.456.416-.767.754-1.521.338-.767.546-1.417h1.014a17 17 0 0 1-.689 1.742 22 22 0 0 1-.936 1.794q-.52.885-1.092 1.703A20 20 0 0 1 185.897 37z"/><defs><linearGradient id="a" x1="-2" x2="132.281" y1="-8" y2="105.992" gradientUnits="userSpaceOnUse"><stop stop-color="#00BE91"/><stop offset="1" stop-color="#5300AB"/></linearGradient></defs></svg>